<svg id="Layer_1" data-name="Layer 1" xmlns="http://www.w3.org/2000/svg" viewBox="0 0 512 512"><title>cloud-download-glyph</title><path d="M512,234.67A117.47,117.47,0,0,1,394.67,352H277.33V245.33a21.33,21.33,0,0,0-42.67,0V352H96a96,96,0,0,1-7.35-191.72C103.48,86.89,168.71,32,245.33,32a159,159,0,0,1,141.58,85.6C454.75,113,512,167.39,512,234.67ZM234.67,418.8l-30.83-20.55a21.33,21.33,0,1,0-23.67,35.5l63.76,42.5A21.17,21.17,0,0,0,255.73,480h.53a21.17,21.17,0,0,0,11.81-3.75l63.76-42.5a21.33,21.33,0,0,0-23.67-35.5L277.33,418.8V352H234.67Z"/></svg>